{"scene":0,"asset":{"generator":"ImageToStl.com","version":"2.0"},"scenes":[{"name":"Scene","nodes":[0]}],"nodes":[{"name":"Node0","children":[1,2]},{"name":"Node1","mesh":0},{"name":"Node2","mesh":1}],"materials":[{"name":"Material.001","pbrMetallicRoughness":{"baseColorFactor":[0.066698,0.059262,0.065692,1.0],"metallicFactor":0.5,"roughnessFactor":0.75},"emissiveFactor":[0.0,0.0,0.0],"doubleSided":true},{"name":"Material","pbrMetallicRoughness":{"baseColorFactor":[0.672412,0.672412,0.672412,1.0],"metallicFactor":0.5,"roughnessFactor":0.75},"emissiveFactor":[0.0,0.0,0.0],"doubleSided":true}],"meshes":[{"name":"Mesh0","primitives":[{"indices":3,"material":0,"attributes":{"POSITION":0,"NORMAL":1,"TEXCOORD_0":2}}]},{"name":"Mesh0","primitives":[{"indices":7,"material":1,"attributes":{"POSITION":4,"NORMAL":5,"TEXCOORD_0":6}}]}],"accessors":[{"bufferView":0,"componentType":5126,"count":14,"type":"VEC3","min":[-1.0,-0.39603543,-0.46996906],"max":[1.0,0.39603543,-0.41279557]},{"bufferView":1,"componentType":5126,"count":14,"type":"VEC3"},{"bufferView":2,"componentType":5126,"count":14,"type":"VEC2"},{"bufferView":3,"componentType":5123,"count":108,"type":"SCALAR"},{"bufferView":4,"componentType":5126,"count":56,"type":"VEC3","min":[-0.9840227,-0.4028931,-0.4221385],"max":[1.0075687,0.39603543,0.10477811]},{"bufferView":5,"componentType":5126,"count":56,"type":"VEC3"},{"bufferView":6,"componentType":5126,"count":56,"type":"VEC2"},{"bufferView":7,"componentType":5123,"count":432,"type":"SCALAR"}],"bufferViews":[{"target":34962,"buffer":0,"byteLength":168,"byteOffset":0},{"target":34962,"buffer":0,"byteLength":168,"byteOffset":168},{"target":34962,"buffer":0,"byteLength":112,"byteOffset":336},{"target":34963,"buffer":0,"byteLength":216,"byteOffset":448},{"target":34962,"buffer":0,"byteLength":672,"byteOffset":664},{"target":34962,"buffer":0,"byteLength":672,"byteOffset":1336},{"target":34962,"buffer":0,"byteLength":448,"byteOffset":2008},{"target":34963,"buffer":0,"byteLength":864,"byteOffset":2456}],"buffers":[{"byteLength":3320,"uri":"data:application/octet-stream;base64,"}]}